<svg xmlns="http://www.w3.org/2000/svg" width="40.27" height="40.049" viewBox="0 0 40.27 40.049">
    <path id="Tracé_94" data-name="Tracé 94" d="M893.806,86.782c-3.668.768-3.668.768-3.306,4.213l4.023.218-.685,3.6-3.452.22v10.85H886.32V95.1l-2.653-.3V91.229l2.566-.295c.165-2.661-.629-5.931,2.22-7.536,1.474-.829,3.389-.808,5.352-1.222Z" transform="translate(-869.076 -72.438)" fill="#c2ad74"/>
    <path id="Tracé_189" data-name="Tracé 189" d="M1082.461,121.482c-2.942,0-5.886.081-8.826-.018-6.762-.223-11.167-4.623-11.3-11.4q-.171-8.51,0-17.023c.134-7.119,4.674-11.514,11.768-11.547,5.676-.025,11.35-.051,17.026.005,6.5.066,11.14,4.55,11.289,11.069q.209,8.978,0,17.968c-.15,6.193-4.58,10.585-10.811,10.869-3.041.137-6.092.023-9.14.023Zm-.124-3.866v.013h8.507c.21,0,.42-.015.631-.028,3.959-.281,6.909-2.777,7.058-6.712.238-6.289.258-12.606-.03-18.894-.185-4.018-3.344-6.633-7.413-6.691-5.775-.084-11.555-.094-17.33,0-4.408.073-7.428,2.858-7.562,7.228q-.277,8.97.01,17.958c.136,4.256,3.043,6.945,7.307,7.1C1076.451,117.707,1079.4,117.616,1082.337,117.616Z" transform="translate(-1062.248 -81.465)" fill="#c2ad74"/>
  </svg>
  