<svg xmlns="http://www.w3.org/2000/svg" width="40.27" height="40.049" viewBox="0 0 40.27 40.049">
  <path id="Tracé_153" data-name="Tracé 153" d="M1082.461,121.482c-2.942,0-5.886.081-8.826-.018-6.762-.223-11.167-4.623-11.3-11.4q-.171-8.51,0-17.023c.134-7.119,4.674-11.514,11.768-11.547,5.676-.025,11.35-.051,17.026.005,6.5.066,11.14,4.55,11.289,11.069q.209,8.978,0,17.968c-.15,6.193-4.58,10.585-10.811,10.869-3.041.137-6.092.023-9.14.023Zm-.124-3.866v.013h8.507c.21,0,.42-.015.631-.028,3.959-.281,6.909-2.777,7.058-6.712.238-6.289.258-12.606-.03-18.894-.185-4.018-3.344-6.633-7.413-6.691-5.775-.084-11.555-.094-17.33,0-4.408.073-7.428,2.858-7.562,7.228q-.277,8.97.01,17.958c.136,4.256,3.043,6.945,7.307,7.1C1076.451,117.707,1079.4,117.616,1082.337,117.616Z" transform="translate(-1062.248 -81.465)" fill="#c2ad74"/>
  <path id="Tracé_176" data-name="Tracé 176" d="M1080.029,115.334c-2.942,0-5.886.091-8.823-.02-4.263-.16-7.17-2.848-7.307-7.1q-.281-8.974-.01-17.958c.134-4.37,3.155-7.155,7.563-7.228,5.775-.1,11.555-.086,17.33,0,4.068.058,7.228,2.674,7.413,6.691.289,6.289.268,12.606.03,18.894-.149,3.934-3.1,6.431-7.058,6.712-.21.013-.42.028-.631.028h-8.507Zm.934-5.841a10.366,10.366,0,0,0,10.41-10.385,10.388,10.388,0,1,0-10.41,10.385Zm14.264-20.97c-1.732-1.185-2.684-2.344-3.5-2.253-.864.1-2.208,1.382-2.21,2.149a3.16,3.16,0,0,0,2.154,2.228C1092.475,90.771,1093.47,89.639,1095.227,88.523Z" transform="translate(-1059.94 -79.182)" fill="#fff"/>
  <path id="Tracé_182" data-name="Tracé 182" d="M1076.823,106a10.5,10.5,0,0,1-10.365-10.471,10.388,10.388,0,0,1,20.775.086A10.366,10.366,0,0,1,1076.823,106Zm6.709-10.413a6.673,6.673,0,1,0-6.773,6.712A6.588,6.588,0,0,0,1083.533,95.585Z" transform="translate(-1055.8 -75.687)" fill="#c2ad74"/>
  <path id="Tracé_183" data-name="Tracé 183" d="M1079.639,86.52c-1.757,1.117-2.752,2.248-3.552,2.124a3.16,3.16,0,0,1-2.154-2.228c0-.767,1.347-2.051,2.21-2.149C1076.955,84.176,1077.907,85.335,1079.639,86.52Z" transform="translate(-1044.351 -77.18)" fill="#c2ad74"/>
  <path id="Tracé_188" data-name="Tracé 188" d="M1081.276,93.33a6.673,6.673,0,0,1-13.345.111,6.673,6.673,0,1,1,13.345-.111Z" transform="translate(-1053.543 -73.432)" fill="#fff"/>
</svg>
