<svg xmlns="http://www.w3.org/2000/svg" width="40.27" height="40.049" viewBox="0 0 40.27 40.049">
    <path id="Tracé_97" data-name="Tracé 97" d="M1073.919,137.606l-3.793,8.8-1.13-.266a29.372,29.372,0,0,1,.042-4.437c.326-2.106,1.032-4.151,1.408-6.254.342-1.913.462-3.868.666-5.806.049-.471-.12-1.051.1-1.405a11.565,11.565,0,0,1,2.188-2.878,2.171,2.171,0,0,1,2,.58,8.492,8.492,0,0,1,.429,3.494c-.07.994-.818,1.959-.816,2.935,0,1.141.164,2.861.866,3.27.824.479,2.49.14,3.468-.415,2.379-1.346,3.556-7.816,2.078-10.267-1.8-2.987-6.255-3.872-9.726-1.934a6.816,6.816,0,0,0-2.9,9.166c.342.731-.044,1.806-.1,2.721-.769-.366-1.78-.532-2.266-1.13-2.52-3.094-1.875-8.682,1.259-11.456a11.865,11.865,0,0,1,10.613-2.8,8.953,8.953,0,0,1,7.551,7.8c.576,4.561-1.522,9.086-4.941,10.78C1078.437,139.341,1076.075,139.341,1073.919,137.606Z" transform="translate(-1054.414 -110.856)" fill="#c2ad74"/>
    <path id="Tracé_189" data-name="Tracé 189" d="M1082.461,121.482c-2.942,0-5.886.081-8.826-.018-6.762-.223-11.167-4.623-11.3-11.4q-.171-8.51,0-17.023c.134-7.119,4.674-11.514,11.768-11.547,5.676-.025,11.35-.051,17.026.005,6.5.066,11.14,4.55,11.289,11.069q.209,8.978,0,17.968c-.15,6.193-4.58,10.585-10.811,10.869-3.041.137-6.092.023-9.14.023Zm-.124-3.866v.013h8.507c.21,0,.42-.015.631-.028,3.959-.281,6.909-2.777,7.058-6.712.238-6.289.258-12.606-.03-18.894-.185-4.018-3.344-6.633-7.413-6.691-5.775-.084-11.555-.094-17.33,0-4.408.073-7.428,2.858-7.562,7.228q-.277,8.97.01,17.958c.136,4.256,3.043,6.945,7.307,7.1C1076.451,117.707,1079.4,117.616,1082.337,117.616Z" transform="translate(-1062.248 -81.465)" fill="#c2ad74"/>
  </svg>
  